HIERARCHY
ROOT Hips
{
    OFFSET 0.000000 0.000000 0.000000
    CHANNELS 6 Xposition Yposition Zposition Zrotation Xrotation Yrotation
    JOINT Spine
    {
        OFFSET -0.000000 7.979263 0.000000
        CHANNELS 3 Zrotation Xrotation Yrotation
        JOINT Spine1
        {
            OFFSET -0.000000 24.719021 0.000000
            CHANNELS 3 Zrotation Xrotation Yrotation
            JOINT Neck
            {
                OFFSET -0.000000 24.617504 2.237955
                CHANNELS 3 Zrotation Xrotation Yrotation
                JOINT Head
                {
                    OFFSET -0.000000 13.623132 -1.946162
                    CHANNELS 3 Zrotation Xrotation Yrotation
                    End Site
                    {
                        OFFSET -0.000000 24.327021 0.000000
                    }
                }
            }
            JOINT LeftShoulder
            {
                OFFSET 3.885773 23.018444 -0.302444
                CHANNELS 3 Zrotation Xrotation Yrotation
                JOINT LeftArm
                {
                    OFFSET 10.447750 0.000000 0.000000
                    CHANNELS 3 Zrotation Xrotation Yrotation
                    JOINT LeftForeArm
                    {
                        OFFSET 29.090096 0.000000 0.000000
                        CHANNELS 3 Zrotation Xrotation Yrotation
                        JOINT LeftHand
                        {
                            OFFSET 28.893339 0.000000 0.000000
                            CHANNELS 3 Zrotation Xrotation Yrotation
                            End Site
                            {
                                OFFSET 14.596213 0.000000 0.000000
                            }
                        }
                    }
                }
            }
            JOINT RightShoulder
            {
                OFFSET -3.864586 23.018444 -0.302444
                CHANNELS 3 Zrotation Xrotation Yrotation
                JOINT RightArm
                {
                    OFFSET -10.447750 0.000000 0.000000
                    CHANNELS 3 Zrotation Xrotation Yrotation
                    JOINT RightForeArm
                    {
                        OFFSET -29.090096 0.000000 0.000000
                        CHANNELS 3 Zrotation Xrotation Yrotation
                        JOINT RightHand
                        {
                            OFFSET -28.893339 0.000000 0.000000
                            CHANNELS 3 Zrotation Xrotation Yrotation
                            End Site
                            {
                                OFFSET -14.596213 0.000000 0.000000
                            }
                        }
                    }
                }
            }
        }
    }
    JOINT LeftUpLeg
    {
        OFFSET 9.730808 0.000000 0.000000
        CHANNELS 3 Zrotation Xrotation Yrotation
        JOINT LeftLeg
        {
            OFFSET -0.000000 -34.800129 0.000000
            CHANNELS 3 Zrotation Xrotation Yrotation
            JOINT LeftFoot
            {
                OFFSET -0.000000 -44.597416 0.000000
                CHANNELS 3 Zrotation Xrotation Yrotation
                JOINT LeftToeBase
                {
                    OFFSET -0.000000 -6.325025 14.596213
                    CHANNELS 3 Zrotation Xrotation Yrotation
                    End Site
                    {
                        OFFSET -0.000000 0.000000 3.892323
                    }
                }
            }
        }
    }
    JOINT RightUpLeg
    {
        OFFSET -9.730808 0.000000 0.000000
        CHANNELS 3 Zrotation Xrotation Yrotation
        JOINT RightLeg
        {
            OFFSET -0.000000 -34.800129 0.000000
            CHANNELS 3 Zrotation Xrotation Yrotation
            JOINT RightFoot
            {
                OFFSET -0.000000 -44.597416 0.000000
                CHANNELS 3 Zrotation Xrotation Yrotation
                JOINT RightToeBase
                {
                    OFFSET -0.000000 -6.325025 14.596213
                    CHANNELS 3 Zrotation Xrotation Yrotation
                    End Site
                    {
                        OFFSET -0.000000 0.000000 3.892323
                    }
                }
            }
        }
    }
}
MOTION
Frames:    10
Frame Time:    0.008333
11.709851    85.683548    52.187794    0.749539    0.728611    90.886856    -0.235948    -8.556719    -0.119965    -1.423098    -1.885277    -0.126199    3.141649    22.380302    -0.648800    -0.129290    0.690355    -0.508158    15.446688    -0.292582    -11.948810    -14.332639    5.341224    6.761396    2.316560    -0.617938    -1.480014    -6.310325    -0.741184    2.778817    -12.566926    2.196920    -4.486849    10.011730    4.874943    10.583640    -1.734525    0.365220    -0.458735    0.990736    0.364426    0.700266    1.431276    5.436617    -0.645094    -1.057096    1.411270    -0.262953    -1.981653    -4.473249    11.137722    0.000000    0.000000    0.000000    -2.644271    8.162570    -1.353956    2.907271    0.185158    -1.724717    -0.503962    -6.631145    -11.034327    0.000000    0.000000    0.000000    
11.711735    85.684082    52.188934    0.749003    0.730612    90.883034    -0.237237    -8.555123    -0.123347    -1.418387    -1.893721    -0.128935    3.126148    22.387501    -0.638510    -0.108578    0.670933    -0.495311    15.441813    -0.287535    -11.947681    -14.334787    5.363438    6.779155    2.313029    -0.625867    -1.490178    -6.303806    -0.749310    2.786114    -12.589199    2.194369    -4.470012    10.029860    4.839961    10.574379    -1.721020    0.360289    -0.463579    0.985827    0.359274    0.693160    1.430934    5.442596    -0.651980    -1.063336    1.406483    -0.233494    -1.988327    -4.471886    11.129470    0.000000    0.000000    0.000000    -2.645740    8.161621    -1.353415    2.908307    0.186953    -1.717992    -0.530276    -6.630388    -11.042586    0.000000    0.000000    0.000000    
11.714589    85.683151    52.190907    0.759447    0.734425    90.895569    -0.224147    -8.534346    -0.136236    -1.460529    -1.920000    -0.144554    3.136619    22.405540    -0.638472    -0.090660    0.658651    -0.491551    15.460438    -0.270332    -11.943852    -14.331948    5.385298    6.792778    2.323494    -0.641201    -1.483970    -6.466750    -0.767298    2.762850    -12.545670    2.209781    -4.456246    10.013456    4.799575    10.577403    -1.724110    0.355427    -0.463860    1.004659    0.354602    0.703137    1.424236    5.447484    -0.642724    -1.052949    1.412010    -0.202203    -1.985761    -4.471585    11.073524    0.000000    0.000000    0.000000    -2.646870    8.185027    -1.336060    2.908267    0.170929    -1.765675    -0.512012    -6.633321    -11.013140    0.000000    0.000000    0.000000    
11.716256    85.682739    52.193199    0.760440    0.734424    90.900032    -0.229609    -8.537345    -0.139485    -1.449605    -1.910281    -0.146604    3.118029    22.382681    -0.645913    -0.066651    0.669892    -0.497873    15.460438    -0.270332    -11.943852    -14.331948    5.385298    6.792778    2.323494    -0.641201    -1.483970    -6.466750    -0.767298    2.762850    -12.545670    2.209781    -4.456246    10.013456    4.799575    10.577403    -1.724110    0.355427    -0.463860    1.004659    0.354602    0.703137    1.433509    5.449169    -0.661669    -1.064634    1.417898    -0.256892    -1.976984    -4.474673    11.138861    0.000000    0.000000    0.000000    -2.646766    8.181667    -1.352379    2.914199    0.184372    -1.744639    -0.527954    -6.637130    -11.029383    0.000000    0.000000    0.000000    
11.719016    85.682541    52.194447    0.767225    0.736404    90.901283    -0.228150    -8.532271    -0.138964    -1.459787    -1.907912    -0.146283    3.146691    22.351934    -0.646509    -0.094119    0.696298    -0.501428    15.473405    -0.275351    -11.926918    -14.341562    5.410439    6.763710    2.323494    -0.641201    -1.483970    -6.466750    -0.767298    2.762850    -12.558123    2.194272    -4.461745    10.027881    4.763595    10.567935    -1.729621    0.356386    -0.460979    1.068888    0.356035    0.690377    1.428743    5.463344    -0.653579    -1.056822    1.401364    -0.221639    -1.981251    -4.467503    11.095393    0.000000    0.000000    0.000000    -2.654011    8.191123    -1.367029    2.923525    0.188937    -1.679759    -0.530496    -6.641661    -11.078724    0.000000    0.000000    0.000000    
11.720860    85.683456    52.197765    0.763441    0.736468    90.905457    -0.237835    -8.533731    -0.133938    -1.452999    -1.913929    -0.140935    3.167894    22.335688    -0.661400    -0.096383    0.712503    -0.516519    15.485106    -0.278742    -11.947351    -14.355173    5.420130    6.771113    2.314434    -0.642592    -1.436180    -6.530233    -0.769831    2.739317    -12.543431    2.205801    -4.488464    10.006382    4.763086    10.577528    -1.726023    0.345762    -0.464442    1.082442    0.345491    0.711179    1.432231    5.455870    -0.656671    -1.059649    1.412904    -0.241321    -1.995645    -4.474920    11.115293    0.000000    0.000000    0.000000    -2.647697    8.196795    -1.333660    2.918320    0.168340    -1.768306    -0.539021    -6.627176    -11.026445    0.000000    0.000000    0.000000    
11.721919    85.683395    52.198296    0.766512    0.735733    90.914978    -0.250814    -8.526061    -0.136145    -1.425682    -1.923279    -0.141859    3.142800    22.335663    -0.670202    -0.074764    0.706357    -0.524139    15.461554    -0.270775    -11.960440    -14.343005    5.412271    6.771753    2.303122    -0.631973    -1.422842    -6.535267    -0.759588    2.734852    -12.552082    2.198045    -4.488162    9.992717    4.798198    10.563087    -1.737081    0.323456    -0.437181    1.146833    0.322805    0.584481    1.433167    5.453792    -0.659225    -1.056599    1.419823    -0.260426    -2.012375    -4.484476    11.131599    0.000000    0.000000    0.000000    -2.645419    8.204079    -1.363705    2.917268    0.166597    -1.747995    -0.537623    -6.630619    -11.022532    0.000000    0.000000    0.000000    
11.725876    85.683266    52.202023    0.771041    0.742661    90.917679    -0.280306    -8.517331    -0.124611    -1.400127    -1.936301    -0.127298    3.178559    22.312241    -0.695313    -0.101429    0.741446    -0.552511    15.484117    -0.267685    -12.002371    -14.378852    5.388142    6.773584    2.311399    -0.629851    -1.405164    -6.570946    -0.758904    2.740966    -12.538196    2.212251    -4.511845    9.969237    4.810974    10.552213    -1.735705    0.321952    -0.440469    1.151620    0.321470    0.609568    1.428947    5.458629    -0.649911    -1.058107    1.422388    -0.286378    -2.005974    -4.485036    11.142606    0.000000    0.000000    0.000000    -2.647757    8.214305    -1.352990    2.913336    0.161503    -1.746485    -0.531437    -6.637076    -11.036054    0.000000    0.000000    0.000000    
11.727567    85.682884    52.202843    0.769512    0.744441    90.920242    -0.303497    -8.524314    -0.113277    -1.363899    -1.924824    -0.113632    3.196659    22.291859    -0.722349    -0.128193    0.738142    -0.583770    15.484150    -0.253306    -12.022096    -14.385006    5.357738    6.759120    2.304980    -0.630323    -1.404235    -6.583518    -0.758780    2.723181    -12.565754    2.217602    -4.545663    9.974476    4.824809    10.556314    -1.737885    0.333242    -0.440545    1.177726    0.332606    0.582304    1.425446    5.467069    -0.665010    -1.055766    1.401005    -0.250098    -2.004940    -4.478082    11.132156    0.000000    0.000000    0.000000    -2.647400    8.215407    -1.354833    2.909565    0.158089    -1.765678    -0.535771    -6.643089    -11.007337    0.000000    0.000000    0.000000    
11.728697    85.683571    52.206135    0.768861    0.740430    90.927559    -0.305075    -8.523373    -0.108967    -1.363658    -1.929173    -0.109154    3.205579    22.286303    -0.734167    -0.118644    0.731016    -0.594523    15.504704    -0.260762    -12.042036    -14.408344    5.353015    6.766483    2.311981    -0.630204    -1.406178    -6.605700    -0.759391    2.728174    -12.556184    2.215864    -4.552616    9.962891    4.848649    10.542351    -1.736256    0.344438    -0.441230    1.158924    0.344096    0.608649    1.435223    5.455172    -0.656861    -1.057826    1.426896    -0.296215    -2.018057    -4.490321    11.154979    0.000000    0.000000    0.000000    -2.640425    8.221066    -1.335091    2.914910    0.152411    -1.775116    -0.559504    -6.632526    -11.041797    0.000000    0.000000    0.000000    
